<svg width="185" height="46" viewBox="0 0 185 46" fill="none" xmlns="http://www.w3.org/2000/svg">
<path d="M32.0167 39C34.0167 41 33.5167 43.5 33.0167 44.5H21.0167C17.5167 45.5 10.6167 44.7 11.0167 33.5C11.5167 19.5 23.0167 17.5 23.5167 17L23.5167 17C24.0167 16.5 25.0167 15.5 24.5167 12C24.1167 9.19999 27.0167 7.16666 28.5167 6.5L34.5167 3C34.0167 4.16667 33.1167 6.40001 33.5167 6.00001C34.0167 5.50001 36.5167 7.00001 36.5167 8.00001C36.5167 9.00001 37.5167 9.50001 38.5167 11C39.5167 12.5 38.0167 13 38.5167 13.5C39.0167 14 36.0167 16.5 35.5167 15.5C35.0167 14.5 32.0167 17 33.5167 17.5C35.0167 18 35.0167 23 35.5167 24.5C36.0167 26 33.0167 30 32.0167 30C31.0167 30 29.5167 36.5 32.0167 39Z" stroke="#303778" stroke-width="2"/>
<path d="M16.015 44.2574H8.01503C6.01503 44.2574 1.91503 42.7574 1.51503 36.7574C1.51503 35.7574 1.91503 33.2574 3.51503 31.2574C5.51503 28.7574 12.515 21.2574 11.015 17.7574C9.51503 14.2574 9.01503 12.2574 4.01503 13.2574C-0.984972 14.2574 1.51503 21.2574 2.51503 21.7574" stroke="#303778" stroke-width="2"/>
<path d="M58.647 38L46.929 26.747L58.182 15.928H62.15L49.905 27.646L50.091 25.755L62.677 38H58.647ZM44.573 38V15.928H47.766V38H44.573ZM64.3646 38V22.376H67.4956V38H64.3646ZM64.1476 15.556H67.7746V18.842H64.1476V15.556ZM69.977 24.794V22.376H80.455V24.794H69.977ZM80.424 35.334V37.876C80.052 38 79.68 38.0827 79.308 38.124C78.936 38.186 78.533 38.217 78.099 38.217C76.5077 38.217 75.2573 37.7727 74.348 36.884C73.4593 35.9747 73.015 34.6417 73.015 32.885V18.47L76.146 17.385V32.637C76.146 33.4017 76.2597 34.001 76.487 34.435C76.7143 34.8483 77.0243 35.148 77.417 35.334C77.8303 35.4993 78.285 35.582 78.781 35.582C79.0703 35.582 79.339 35.5613 79.587 35.52C79.835 35.4787 80.114 35.4167 80.424 35.334ZM81.1782 24.794V22.376H91.6562V24.794H81.1782ZM91.6252 35.334V37.876C91.2532 38 90.8812 38.0827 90.5092 38.124C90.1372 38.186 89.7342 38.217 89.3002 38.217C87.7089 38.217 86.4585 37.7727 85.5492 36.884C84.6605 35.9747 84.2162 34.6417 84.2162 32.885V18.47L87.3472 17.385V32.637C87.3472 33.4017 87.4609 34.001 87.6882 34.435C87.9155 34.8483 88.2255 35.148 88.6182 35.334C89.0315 35.4993 89.4862 35.582 89.9822 35.582C90.2715 35.582 90.5402 35.5613 90.7882 35.52C91.0362 35.4787 91.3152 35.4167 91.6252 35.334ZM94.1708 45.037L93.4888 42.619C94.4395 42.4123 95.2352 42.154 95.8758 41.844C96.5372 41.5547 97.0848 41.1827 97.5188 40.728C97.9528 40.2733 98.3248 39.6843 98.6348 38.961L99.6888 36.543L100.433 35.458L105.827 22.376H108.958L101.673 39.24C101.094 40.5627 100.433 41.6063 99.6888 42.371C98.9655 43.1563 98.1388 43.7557 97.2088 44.169C96.2788 44.5823 95.2662 44.8717 94.1708 45.037ZM99.7508 38.899L92.6518 22.376H95.9068L101.239 35.458L99.7508 38.899ZM111.689 38V15.928H120.927C123.18 15.928 124.947 16.4343 126.228 17.447C127.51 18.4597 128.15 19.8753 128.15 21.694C128.15 22.9547 127.799 24.0293 127.096 24.918C126.414 25.786 125.464 26.406 124.244 26.778V26.53C125.65 26.8193 126.745 27.4393 127.53 28.39C128.316 29.3407 128.708 30.5393 128.708 31.986C128.708 33.908 128.047 35.396 126.724 36.45C125.422 37.4833 123.593 38 121.237 38H111.689ZM114.851 35.427H120.927C122.539 35.427 123.717 35.1377 124.461 34.559C125.226 33.9803 125.608 33.0607 125.608 31.8C125.608 30.56 125.226 29.63 124.461 29.01C123.697 28.39 122.519 28.08 120.927 28.08H114.851V35.427ZM114.851 25.507H120.4C121.971 25.507 123.139 25.2073 123.903 24.608C124.668 24.0087 125.05 23.12 125.05 21.942C125.05 20.7847 124.668 19.927 123.903 19.369C123.139 18.7903 121.971 18.501 120.4 18.501H114.851V25.507ZM138.646 38.217C137.261 38.217 136.042 37.8967 134.988 37.256C133.955 36.5947 133.149 35.6647 132.57 34.466C132.012 33.2467 131.733 31.8207 131.733 30.188C131.733 28.5553 132.022 27.1293 132.601 25.91C133.18 24.67 133.986 23.709 135.019 23.027C136.073 22.345 137.282 22.004 138.646 22.004C140.031 22.004 141.209 22.345 142.18 23.027C143.172 23.6883 143.844 24.639 144.195 25.879L143.823 26.127V22.376H146.923V38H143.823V34.187L144.195 34.342C143.844 35.582 143.172 36.543 142.18 37.225C141.209 37.8863 140.031 38.217 138.646 38.217ZM139.39 35.737C140.795 35.737 141.88 35.2513 142.645 34.28C143.43 33.3087 143.823 31.924 143.823 30.126C143.823 28.328 143.43 26.9433 142.645 25.972C141.88 25.0007 140.795 24.515 139.39 24.515C137.964 24.515 136.848 25.0213 136.042 26.034C135.257 27.026 134.864 28.4107 134.864 30.188C134.864 31.9653 135.257 33.3397 136.042 34.311C136.848 35.2617 137.964 35.737 139.39 35.737ZM151.492 38V26.778C151.492 26.0547 151.471 25.321 151.43 24.577C151.409 23.833 151.347 23.0993 151.244 22.376H154.22L154.499 25.538L154.189 25.724C154.643 24.5047 155.367 23.585 156.359 22.965C157.371 22.3243 158.529 22.004 159.831 22.004C163.571 22.004 165.442 24.1017 165.442 28.297V38H162.311V28.421C162.311 27.0777 162.042 26.096 161.505 25.476C160.967 24.856 160.141 24.546 159.025 24.546C157.681 24.546 156.607 24.9593 155.801 25.786C155.015 26.6127 154.623 27.7183 154.623 29.103V38H151.492ZM180.469 38L172.409 30.033L179.942 22.407H183.817L175.416 30.839L175.54 29.072L184.468 38H180.469ZM169.867 38V15.184H172.998V38H169.867Z" fill="#303778"/>
</svg>
